<mxGraphModel dx="1059" dy="605" grid="1" gridSize="10" guides="1" tooltips="1" connect="1" arrows="1" fold="1" page="1" pageScale="1" pageWidth="1100" pageHeight="850" background="none" math="0" shadow="0">
  <root>
    <mxCell id="0" />
    <mxCell id="1" parent="0" />
    <mxCell id="userEntity" value="User" style="swimlane;fillColor=#dae8fc;horizontal=1;" vertex="1" parent="1">
      <mxGeometry x="300" y="50" width="200" height="150" as="geometry" />
    </mxCell>
    <mxCell id="userAttributes" value="id (PK): uuid&lt;br&gt;name: String&lt;br&gt;age: Integer&lt;br&gt;location: String&lt;br&gt;pace: Enum&lt;br&gt;distance: String&lt;br&gt;about: Text" style="text;html=1;align=left;verticalAlign=top;" vertex="1" parent="userEntity">
      <mxGeometry y="30" width="200" height="120" as="geometry" />
    </mxCell>
    <mxCell id="runEntity" value="Run" style="swimlane;fillColor=#f8cecc;horizontal=1;" vertex="1" parent="1">
      <mxGeometry x="60" y="50" width="200" height="150" as="geometry" />
    </mxCell>
    <mxCell id="runAttributes" value="id (PK): uuid&lt;br&gt;user_id (FK): Integer&lt;br&gt;date: DateTime&lt;br&gt;location: String&lt;br&gt;distance: String&lt;div&gt;status: Enum&lt;/div&gt;" style="text;html=1;align=left;verticalAlign=top;" vertex="1" parent="runEntity">
      <mxGeometry y="30" width="200" height="120" as="geometry" />
    </mxCell>
    <mxCell id="chatEntity" value="Chat" style="swimlane;fillColor=#d5e8d4;horizontal=1;" vertex="1" parent="1">
      <mxGeometry x="590" y="70" width="200" height="150" as="geometry" />
    </mxCell>
    <mxCell id="chatAttributes" value="id (PK): uuid&lt;br&gt;sender (FK): uuid&lt;br&gt;last_message: Text&lt;br&gt;last_message_time: DateTime" style="text;html=1;align=left;verticalAlign=top;" vertex="1" parent="chatEntity">
      <mxGeometry y="30" width="200" height="120" as="geometry" />
    </mxCell>
    <mxCell id="sy3fpL0bsb6ezjBv6HW1-24" style="edgeStyle=orthogonalEdgeStyle;rounded=0;orthogonalLoop=1;jettySize=auto;html=1;exitX=0;exitY=0.5;exitDx=0;exitDy=0;entryX=1;entryY=0.5;entryDx=0;entryDy=0;endArrow=ERzeroToMany;endFill=0;startArrow=ERmandOne;startFill=0;" edge="1" parent="1" source="userAttributes" target="runAttributes">
      <mxGeometry relative="1" as="geometry" />
    </mxCell>
    <mxCell id="sy3fpL0bsb6ezjBv6HW1-25" style="edgeStyle=orthogonalEdgeStyle;rounded=0;orthogonalLoop=1;jettySize=auto;html=1;exitX=1;exitY=0.5;exitDx=0;exitDy=0;entryX=-0.009;entryY=0.184;entryDx=0;entryDy=0;endArrow=ERzeroToMany;endFill=0;startArrow=ERmandOne;startFill=0;entryPerimeter=0;" edge="1" parent="1" source="userAttributes" target="chatAttributes">
      <mxGeometry relative="1" as="geometry">
        <mxPoint x="310" y="150" as="sourcePoint" />
        <mxPoint x="270" y="150" as="targetPoint" />
      </mxGeometry>
    </mxCell>
    <mxCell id="sy3fpL0bsb6ezjBv6HW1-29" style="edgeStyle=orthogonalEdgeStyle;rounded=0;orthogonalLoop=1;jettySize=auto;html=1;entryX=0.75;entryY=0;entryDx=0;entryDy=0;endArrow=ERzeroToMany;endFill=0;startArrow=ERmandOne;startFill=0;exitX=0.5;exitY=1;exitDx=0;exitDy=0;" edge="1" parent="1" source="chatAttributes" target="sy3fpL0bsb6ezjBv6HW1-27">
      <mxGeometry relative="1" as="geometry">
        <mxPoint x="650" y="200" as="sourcePoint" />
        <mxPoint x="558" y="130" as="targetPoint" />
      </mxGeometry>
    </mxCell>
    <mxCell id="8GoP-1W42B7T6uZ3GLff-1" value="Attachment" style="swimlane;fillColor=#fff2cc;horizontal=1;strokeColor=#d6b656;" vertex="1" parent="1">
      <mxGeometry x="110" y="260" width="200" height="150" as="geometry" />
    </mxCell>
    <mxCell id="8GoP-1W42B7T6uZ3GLff-2" value="id (PK): uuid&lt;br&gt;message_id (FK): uuid&lt;div&gt;file_url: String&lt;/div&gt;&lt;div&gt;file_type: Enum&lt;/div&gt;&lt;div&gt;file_size: Integer&lt;/div&gt;" style="text;html=1;align=left;verticalAlign=top;" vertex="1" parent="8GoP-1W42B7T6uZ3GLff-1">
      <mxGeometry y="30" width="200" height="120" as="geometry" />
    </mxCell>
    <mxCell id="8GoP-1W42B7T6uZ3GLff-3" style="edgeStyle=orthogonalEdgeStyle;rounded=0;orthogonalLoop=1;jettySize=auto;html=1;exitX=0;exitY=0.25;exitDx=0;exitDy=0;entryX=0.997;entryY=0.414;entryDx=0;entryDy=0;endArrow=ERzeroToMany;endFill=0;startArrow=ERmandOne;startFill=0;entryPerimeter=0;" edge="1" parent="1" source="sy3fpL0bsb6ezjBv6HW1-28" target="8GoP-1W42B7T6uZ3GLff-2">
      <mxGeometry relative="1" as="geometry">
        <mxPoint x="510" y="150" as="sourcePoint" />
        <mxPoint x="558" y="112" as="targetPoint" />
      </mxGeometry>
    </mxCell>
    <mxCell id="sy3fpL0bsb6ezjBv6HW1-27" value="Message" style="swimlane;fillColor=#e1d5e7;horizontal=1;strokeColor=#9673a6;" vertex="1" parent="1">
      <mxGeometry x="420" y="330" width="200" height="150" as="geometry" />
    </mxCell>
    <mxCell id="sy3fpL0bsb6ezjBv6HW1-28" value="id (PK): uuid&lt;div&gt;&lt;code style=&quot;background-color: initial;&quot;&gt;chat_id&lt;/code&gt;&lt;span style=&quot;background-color: initial;&quot;&gt; (FK): uuid&lt;/span&gt;&lt;/div&gt;&lt;div&gt;&lt;code style=&quot;background-color: initial;&quot;&gt;sender_id&lt;/code&gt;&lt;span style=&quot;background-color: initial;&quot;&gt; (FK): uuid&lt;/span&gt;&lt;/div&gt;&lt;div&gt;&lt;code style=&quot;background-color: initial;&quot;&gt;content&lt;/code&gt;&lt;span style=&quot;background-color: initial;&quot;&gt;: Text&lt;/span&gt;&lt;/div&gt;&lt;div&gt;&lt;code style=&quot;background-color: initial;&quot;&gt;timestamp&lt;/code&gt;&lt;span style=&quot;background-color: initial;&quot;&gt;:&amp;nbsp;&lt;/span&gt;&lt;span style=&quot;background-color: initial;&quot;&gt;DateTime&lt;/span&gt;&lt;span style=&quot;background-color: initial;&quot;&gt;.&lt;/span&gt;&lt;/div&gt;" style="text;html=1;align=left;verticalAlign=top;" vertex="1" parent="sy3fpL0bsb6ezjBv6HW1-27">
      <mxGeometry y="20" width="200" height="130" as="geometry" />
    </mxCell>
    <mxCell id="8GoP-1W42B7T6uZ3GLff-7" style="edgeStyle=orthogonalEdgeStyle;rounded=0;orthogonalLoop=1;jettySize=auto;html=1;entryX=0.353;entryY=-0.009;entryDx=0;entryDy=0;endArrow=ERzeroToMany;endFill=0;startArrow=ERmandOne;startFill=0;exitX=0.5;exitY=1;exitDx=0;exitDy=0;entryPerimeter=0;" edge="1" parent="1" source="userAttributes" target="sy3fpL0bsb6ezjBv6HW1-27">
      <mxGeometry relative="1" as="geometry">
        <mxPoint x="700" y="230" as="sourcePoint" />
        <mxPoint x="580" y="340" as="targetPoint" />
      </mxGeometry>
    </mxCell>
  </root>
</mxGraphModel>
